<?xml version="1.0" encoding="UTF-8" standalone="no"?>
<svg
   version="1.1"
   x="0px"
   y="0px"
   viewBox="0 0 58.7897 58.7873"
   enable-background="new 0 0 64 64"
   xml:space="preserve"
   id="svg20"
   sodipodi:docname="noun_magic_3659195.svg"
   width="58.7897"
   height="58.7873"
   inkscape:version="1.1.1 (1:1.1+202109281949+c3084ef5ed)"
   xmlns:inkscape="http://www.inkscape.org/namespaces/inkscape"
   xmlns:sodipodi="http://sodipodi.sourceforge.net/DTD/sodipodi-0.dtd"
   xmlns="http://www.w3.org/2000/svg"
   xmlns:svg="http://www.w3.org/2000/svg"><defs
     id="defs24" /><sodipodi:namedview
     id="namedview22"
     pagecolor="#ffffff"
     bordercolor="#666666"
     borderopacity="1.0"
     inkscape:pageshadow="2"
     inkscape:pageopacity="0.0"
     inkscape:pagecheckerboard="0"
     showgrid="false"
     fit-margin-top="0"
     fit-margin-left="0"
     fit-margin-right="0"
     fit-margin-bottom="0"
     inkscape:zoom="9.7125"
     inkscape:cx="29.498069"
     inkscape:cy="37.168597"
     inkscape:window-width="1920"
     inkscape:window-height="1043"
     inkscape:window-x="1920"
     inkscape:window-y="0"
     inkscape:window-maximized="1"
     inkscape:current-layer="svg20" /><rect
     x="-43.695374"
     y="-3.7718668"
     transform="rotate(-134.9919)"
     width="4.2499595"
     height="11.499889"
     id="rect2"
     style="fill:#f7a913;fill-opacity:1;stroke:#f7a913;stroke-width:0.99999;stroke-opacity:1" /><rect
     x="-43.699013"
     y="-38.438049"
     transform="rotate(-134.9919)"
     width="4.2499595"
     height="33.166683"
     id="rect4"
     style="fill:#f7a913;fill-opacity:1;stroke:#f7a913;stroke-width:0.99999;stroke-opacity:1" /><path
     d="m 41.573699,18.276 9.782,-9.781 c 0.293,-0.293 0.293,-0.768 0,-1.061 -0.293,-0.293 -0.768,-0.293 -1.061,0 l -9.782,9.781 c -0.293,0.293 -0.293,0.768 0,1.061 0.146,0.146 0.338,0.22 0.53,0.22 0.192,0 0.385,-0.073 0.531,-0.22 z"
     id="path6"
     style="fill:#f7a913;fill-opacity:1;stroke:#f7a913;stroke-opacity:1" /><path
     d="m 34.328699,15.833 c 0.414,0 0.75,-0.336 0.75,-0.75 V 1.25 c 0,-0.414 -0.336,-0.75 -0.75,-0.75 -0.414,0 -0.75,0.336 -0.75,0.75 v 13.833 c 0,0.414 0.336,0.75 0.75,0.75 z"
     id="path8"
     style="fill:#f7a913;fill-opacity:1;stroke:#f7a913;stroke-opacity:1" /><path
     d="m 57.539699,23.711 h -13.833 c -0.414,0 -0.75,0.336 -0.75,0.75 0,0.414 0.336,0.75 0.75,0.75 h 13.833 c 0.414,0 0.75,-0.336 0.75,-0.75 0,-0.414 -0.336,-0.75 -0.75,-0.75 z"
     id="path10"
     style="fill:#f7a913;fill-opacity:1;stroke:#f7a913;stroke-opacity:1" /><path
     d="m 42.131699,30.039 c -0.289,-0.296 -0.764,-0.303 -1.061,-0.014 -0.297,0.289 -0.303,0.764 -0.014,1.061 l 5.167,5.301 c 0.147,0.15 0.342,0.227 0.537,0.227 0.188,0 0.378,-0.071 0.523,-0.213 0.297,-0.289 0.303,-0.764 0.014,-1.061 z"
     id="path12"
     style="fill:#f7a913;fill-opacity:1;stroke:#f7a913;stroke-opacity:1" /><path
     d="m 27.689699,17.45 c 0.147,0.151 0.342,0.227 0.537,0.227 0.189,0 0.378,-0.071 0.523,-0.213 0.297,-0.289 0.303,-0.764 0.014,-1.061 l -5.167,-5.301 c -0.29,-0.297 -0.766,-0.303 -1.061,-0.014 -0.297,0.289 -0.303,0.764 -0.014,1.061 z"
     id="path14"
     style="fill:#f7a913;fill-opacity:1;stroke:#f7a913;stroke-opacity:1" /></svg>
