<?xml version="1.0" encoding="UTF-8" standalone="no"?>
<svg
   xmlns:dc="http://purl.org/dc/elements/1.1/"
   xmlns:cc="http://creativecommons.org/ns#"
   xmlns:rdf="http://www.w3.org/1999/02/22-rdf-syntax-ns#"
   xmlns:svg="http://www.w3.org/2000/svg"
   xmlns="http://www.w3.org/2000/svg"
   id="svg1443"
   version="1.1"
   viewBox="0 0 25.441448 26.478498"
   height="26.478498mm"
   width="25.441448mm">
  <defs
     id="defs1437" />
  <metadata
     id="metadata1440">
    <rdf:RDF>
      <cc:Work
         rdf:about="">
        <dc:format>image/svg+xml</dc:format>
        <dc:type
           rdf:resource="http://purl.org/dc/dcmitype/StillImage" />
        <dc:title></dc:title>
      </cc:Work>
    </rdf:RDF>
  </metadata>
  <g
     transform="translate(-69.168202,-80.073774)"
     id="layer1">
    <path
       id="path860-3"
       d="m 85.664618,106.48135 c -0.134652,-0.29104 -0.626273,-2.71197 -1.09249,-5.37986 -0.677399,-3.876343 -0.752425,-4.850692 -0.373511,-4.850692 0.460895,0 0.449844,-0.516067 -0.06598,-3.081433 -0.162655,-0.808932 -1.547609,-1.41854 -2.244393,-0.987904 -0.477884,0.295349 -0.50247,9.326869 -0.02878,10.572759 l 0.344047,0.90491 h -2.531268 c -1.968764,0 -2.437194,-0.0941 -2.107935,-0.42333 0.517178,-0.51718 0.598964,-8.396112 0.08716,-8.396112 -1.201643,0 -2.060765,0.857078 -2.247982,2.242632 -0.227811,1.685983 0.07182,4.392 0.516765,4.66699 0.894837,0.55304 -0.0072,0.85149 -2.573392,0.85149 -2.736356,0 -2.849128,-0.0307 -2.308444,-0.62814 0.755012,-0.83428 0.945237,-6.488471 0.226354,-6.728096 -0.833424,-0.27781 -2.096567,-1.764591 -2.096567,-2.467767 0,-0.64531 0.632711,-1.112109 1.50739,-1.112109 0.215243,0 0.0832,0.22897 -0.293436,0.508822 -0.673513,0.500444 -0.67188,0.521902 0.09916,1.303317 0.431173,0.436975 0.879501,0.698947 0.996285,0.582162 0.362239,-0.362246 0.18182,-8.397202 -0.204781,-9.119573 -0.343523,-0.641877 -0.231876,-0.683075 1.851709,-0.683295 l 2.217274,-2.3e-4 -0.122025,4.93912 c -0.131674,5.32973 -0.121122,5.356619 1.727044,4.400894 l 1.040814,-0.538226 v -4.506494 c 0,-3.034684 -0.13826,-4.644758 -0.423333,-4.929831 -0.329259,-0.329258 0.110301,-0.423333 1.978021,-0.423333 2.14829,0 2.374667,0.06506 2.148118,0.61736 -0.376839,0.918692 -0.651331,5.192453 -0.398259,6.200772 0.174939,0.697011 0.383993,0.837616 1.015509,0.682996 0.437372,-0.107085 0.991637,-0.348279 1.231701,-0.535993 0.240064,-0.187709 0.676627,-0.24914 0.970139,-0.136506 0.647595,0.248501 0.647642,0.226372 0.0088,-4.182796 -0.830935,-5.735153 -0.908268,-5.468056 1.583173,-5.468056 h 2.116667 v 8.181316 c 0,7.269271 -0.05774,8.104973 -0.517947,7.496527 -0.467564,-0.618173 -0.519039,-0.365329 -0.529167,2.599229 -0.0069,2.03064 -0.141913,3.20324 -0.353655,3.07238 -0.421594,-0.26056 -0.678558,0.80233 -0.808683,3.34499 -0.0547,1.06884 -0.209256,1.70261 -0.34412,1.41111 z m 4.181645,-15.333418 c -0.757655,-1.156329 -0.721835,-1.298749 0.264391,-1.051221 1.117411,0.280451 1.187667,-0.03521 1.004734,-4.514149 -0.154688,-3.787394 -0.155129,-3.788979 -0.996811,-3.57773 -1.270811,0.318955 -1.084572,-0.779949 0.249063,-1.469596 0.600114,-0.310333 1.130253,-0.512847 1.178087,-0.450033 0.04783,0.06281 0.756785,1.014114 1.575448,2.113997 l 1.488475,1.999793 -0.242782,2.992162 c -0.13353,1.64569 -0.341297,3.14457 -0.461703,3.330847 -0.29881,0.462275 -2.35974,1.495462 -2.98305,1.495462 -0.278362,0 -0.762496,-0.391289 -1.075852,-0.869532 z"
       style="fill:#000000;stroke-width:0.35277778" />
  </g>
</svg>
