<?xml version="1.0" encoding="UTF-8" standalone="no"?>
<svg
   xmlns:dc="http://purl.org/dc/elements/1.1/"
   xmlns:cc="http://creativecommons.org/ns#"
   xmlns:rdf="http://www.w3.org/1999/02/22-rdf-syntax-ns#"
   xmlns:svg="http://www.w3.org/2000/svg"
   xmlns="http://www.w3.org/2000/svg"
   id="svg912"
   version="1.1"
   viewBox="0 0 210 297"
   height="297mm"
   width="210mm">
  <defs
     id="defs906" />
  <metadata
     id="metadata909">
    <rdf:RDF>
      <cc:Work
         rdf:about="">
        <dc:format>image/svg+xml</dc:format>
        <dc:type
           rdf:resource="http://purl.org/dc/dcmitype/StillImage" />
        <dc:title></dc:title>
      </cc:Work>
    </rdf:RDF>
  </metadata>
  <g
     id="layer1">
    <path
       id="path1743"
       d="m 182.98812,-19.777265 c -0.79738,5.6e-5 -0.83817,0.113438 -0.83817,2.314073 0,2.42743 -0.46202,2.798079 -0.85784,0.688329 -0.29212,-1.557229 -0.90162,-1.618163 -0.91932,-0.09199 -0.0153,1.32801 -0.35451,3.906692 -0.53951,4.102592 -0.0694,0.07358 -0.31636,-0.283609 -0.5488,-0.79375 -0.835,-1.832628 -1.41221,-0.607467 -0.6537,1.387512 0.3194,0.840102 0.19502,1.164961 -1.07747,2.8142989 -0.94773,1.228471 -1.73297,2.8224638 -2.30113,4.6725839 -0.47429,1.5444894 -1.23703,3.6617884 -1.695,4.70513832 -0.45802,1.04334998 -1.0437,2.73047618 -1.30173,3.74912458 -0.51562,2.0355904 -1.39422,2.5357614 -1.39424,0.79375 2e-5,-1.1523292 -0.52335,-1.4397434 -0.78754,-0.4320143 -0.17409,0.6657949 -1.53019,0.9634141 -1.87171,0.4108291 -0.11176,-0.1808506 0.20108,-0.5131461 0.69556,-0.7384573 0.69834,-0.3181906 0.81135,-0.5151305 0.50591,-0.8831501 -0.28916,-0.3486811 -0.28903,-0.473874 0.003,-0.473874 0.21778,0 0.39367,-0.2779818 0.39068,-0.6175322 -0.003,-0.3720888 -0.10837,-0.4668758 -0.26458,-0.2387441 -0.31398,0.4584594 -1.61118,0.9785905 -1.33792,0.5364003 0.10602,-0.1714711 -0.0449,-0.4029313 -0.33486,-0.5141806 -0.28993,-0.11126 -0.5271,-0.044823 -0.5271,0.1472776 0,0.1921008 -0.41735,0.5390595 -0.92758,0.7715303 -0.558,0.2542487 -1.18578,1.0249244 -1.57511,1.9332152 -0.35603,0.8305165 -0.77597,1.509985 -0.9338,1.509985 -0.1578,0 -0.28249,-0.7361423 -0.27749,-1.6355589 0.008,-1.3906606 0.1344,-1.6812287 0.84076,-1.9425179 0.55896,-0.2067401 0.76055,-0.4890453 0.61704,-0.8629968 -0.11729,-0.3056599 -0.21561,-0.7412381 -0.2186,-0.9678987 -0.003,-0.23645018 -0.15105,-0.18629577 -0.34727,0.11730567 -0.28511,0.44120853 -0.34983,0.41154613 -0.38912,-0.17673373 -0.0254,-0.38805114 -0.027,-0.82444695 -0.005,-0.96996778 0.0363,-0.22979856 -0.73866,-0.40519349 -1.41595,-0.32039189 -0.35306,0.0442198 -0.16726,-1.15109627 0.22323,-1.43815597 0.19921,-0.1463595 0.0841,-0.2615829 -0.26458,-0.2645833 -0.98888,-0.00865 -2.12011,1.3458878 -1.88979,2.26342839 0.13997,0.55767022 -0.0519,1.0331635 -0.63976,1.58543361 l -0.83973,0.78858 V 0.91191353 c 0,-0.68183124 -0.0989,-1.39925953 -0.2191,-1.59421775 -0.1205,-0.19497146 0.0153,-0.48571678 0.30178,-0.64595638 0.82867,-0.4637405 0.0949,-1.1927205 -1.33377,-1.3255016 -1.21451,-0.1128686 -1.28881,-0.060944 -1.28881,0.903306 0,0.82260806 -0.1556,1.025562 -0.79375,1.03456048 -1.36623,0.0193146 -2.05864,0.80680188 -1.80869,2.05672262 0.14322,0.715989 0.081,1.1069082 -0.17568,1.1069082 -0.21963,0 -0.39688,-0.5608955 -0.39688,-1.2557363 0,-0.8313711 -0.13253,-1.17336887 -0.39224,-1.01285674 -0.21572,0.13331824 -0.52832,0.0234685 -0.69453,-0.24391408 -0.18614,-0.2995004 -0.27218,0.23274337 -0.22479,1.38596152 0.066,1.6049414 -0.0423,1.9613986 -0.75756,2.5011407 -0.7289,0.5500184 -0.80317,0.8132921 -0.58862,2.0830751 0.22778,1.3484489 0.18153,1.469218 -0.6418,1.6758682 -0.56374,0.1414859 -1.02116,0.6068351 -1.2542,1.2753736 -0.20177,0.5788078 -0.51827,0.9587786 -0.70332,0.8443939 -0.1851,-0.1143846 -0.44029,0.1184619 -0.56689,0.517279 -0.1342,0.422928 -0.64236,0.807601 -1.21904,0.922943 -2.00271,0.400542 -6.87425,5.714797 -6.21565,6.780464 0.11078,0.179208 -0.19058,1.18132 -0.66921,2.226739 -0.48387,1.056878 -0.80055,2.287219 -0.71363,2.771404 0.27008,1.507448 0.27641,4.7132 0.0108,5.686991 -0.20835,0.764125 -0.11885,0.978636 0.48885,1.171507 0.40915,0.12986 0.98409,0.700844 1.27796,1.269171 0.2939,0.568333 0.69498,1.033529 0.89091,1.033529 0.19595,0 0.66238,0.714375 1.03664,1.5875 l 0.68056,1.5875 1.86449,0.0041 c 1.76019,0.0041 1.9118,0.07745 2.70941,1.30793 l 0.8449,1.303279 -1.5503,1.348238 c -0.98375,0.855398 -1.79115,1.288603 -2.20864,1.184426 -0.36187,-0.09031 -1.53247,0.2223 -2.60138,0.695047 -1.28561,0.568539 -2.59572,0.85938 -3.86953,0.85938 -1.05918,0 -3.22186,0.334301 -4.80645,0.74259 -2.38678,0.614989 -3.81783,0.733451 -8.3411,0.689361 -3.00289,-0.02925 -6.17773,-0.218924 -7.05538,-0.421161 -2.34315,-0.539941 -6.14743,-0.47916 -9.35704,0.149344 -1.55223,0.303953 -4.25079,0.650711 -5.99704,0.771012 -4.925567,0.339323 -9.624382,1.232355 -12.523792,2.380218 -3.166321,1.25368 -5.902695,1.253416 -8.489923,-0.0021 -1.906376,-0.92474 -2.09341,-0.947319 -2.09341,-0.25218 0,0.301035 -0.316732,0.529167 -0.734827,0.529167 -0.409284,0 -0.673338,0.185537 -0.595842,0.418063 0.3887,1.166095 5.745242,2.739324 9.367388,2.751254 2.536719,0.0083 2.73304,0.66336 0.734324,2.451012 -1.233011,1.102771 -1.452192,1.465662 -1.101751,1.825729 0.60235,0.61882 2.0574,-0.123672 5.20745,-2.657719 3.353488,-2.69766 4.328001,-2.954178 8.016023,-2.107366 2.40134,0.551375 4.32901,0.671295 10.85723,0.674894 4.36563,0.0024 8.10872,0.114085 8.31784,0.248046 0.97796,0.626417 11.84887,1.673765 16.553,1.594737 4.88286,-0.08203 4.95885,-0.07151 6.68073,0.940509 2.45739,1.44436 4.68188,3.59406 5.13249,4.959389 0.21127,0.640051 0.68924,1.439313 1.06196,1.776635 0.66453,0.601374 1.79858,3.487388 1.96524,5.000728 0.0464,0.421376 0.18778,1.235409 0.31369,1.808676 0.15084,0.686813 0.0601,1.210591 -0.26561,1.53634 -0.27189,0.271902 -0.69898,1.125257 -0.9488,1.896007 -0.67513,2.083245 -1.98768,4.598665 -4.00335,7.671885 -2.00414,3.055673 -1.37142,2.727471 -8.34885,4.331001 -4.74472,1.09042 -6.11897,1.646155 -10.07743,4.073653 -1.79548,1.1011 -4.07183,2.129614 -5.86528,2.650484 -1.9499,0.56633 -3.70813,1.386666 -5.2529,2.451013 -2.93061,2.01911 -4.94221,2.623331 -8.75811,2.630331 -1.6669,0.003 -5.24891,0.320363 -7.95972,0.705383 -5.97038,0.847989 -9.871926,0.883031 -14.904009,0.133842 -2.281952,-0.33979 -5.07328,-0.505979 -6.978386,-0.415479 -2.838397,0.13482 -3.572933,0.325754 -6.928776,1.800924 -2.06457,0.90756 -4.008913,1.650028 -4.321175,1.650028 -0.745225,0 -0.754168,1.527409 -0.01402,2.268079 0.344938,0.34493 1.178084,0.555073 2.205038,0.557073 3.149785,0.005 6.966056,1.18828 9.524497,2.95227 3.1945,2.20253 4.327551,2.20956 6.766507,0.0434 1.409779,-1.25208 2.053775,-1.5875 3.048397,-1.5875 0.693579,0 4.776179,0.64947 9.072298,1.44333 9.827519,1.81597 10.453549,1.78687 18.248499,-0.85628 6.69364,-2.269764 9.60448,-2.785604 13.3351,-2.363684 1.52297,0.17223 3.61693,0.154249 5.03949,-0.04289 l 2.43396,-0.336931 2.15646,1.801955 c 3.70954,3.0996 3.45355,3.03771 10.342,2.49597 3.85527,-0.30319 12.22984,-0.008 13.60692,0.48008 0.27739,0.0983 4.47275,0.75453 9.32346,1.45779 4.85069,0.70325 8.89884,1.36168 8.99584,1.46348 0.097,0.10181 2.00199,0.0964 4.23333,-0.0124 6.11235,-0.29801 11.39285,-1.98878 12.2778,-3.93102 0.56002,-1.22917 0.53473,-3.1167 -0.061,-4.54236 -1.15298,-2.75954 -7.05813,-6.108093 -15.89617,-9.013403 l -5.26738,-1.731161 -0.84129,-2.591056 c -0.60582,-1.86579 -0.77073,-2.937353 -0.58912,-3.827673 0.13872,-0.680048 0.21984,-3.379743 0.18034,-5.999118 -0.0541,-3.600006 0.11488,-5.795825 0.69299,-8.995834 1.20775,-6.685626 0.73771,-10.978747 -2.49184,-22.754166 -2.10138,-7.662034 -2.32839,-9.955318 -1.4247,-14.389817 0.94903,-4.656881 2.09465,-8.253793 4.32943,-13.592452 l 1.79834,-4.296897 0.11988,-4.8782554 c 0.0842,-3.436829 0.37981,-6.13385386 1.00047,-9.1296753 0.48454,-2.3386256 0.88056,-4.2948198 0.88056,-4.3470195 0,-0.052192 0.82437,-0.3887179 1.83193,-0.7477575 1.02338,-0.3646805 2.38606,-1.2172156 3.08715,-1.9316673 0.69017,-0.703379 1.86124,-1.473742 2.60242,-1.711523 1.261,-0.404548 1.99533,-1.192644 1.53739,-1.650545 -0.11044,-0.110469 -0.9525,0.05508 -1.87069,0.367937 -0.91821,0.312859 -2.05885,0.568958 -2.53473,0.568958 -0.80727,0 -0.84881,-0.08869 -0.62529,-1.322917 0.89011,-4.91567 0.63632,-6.438043 -1.07228,-6.438368 z"
       style="fill:#000000;stroke-width:0.35277778" />
    <path
       id="path1685"
       d="m 76.3831,168.84994 c -0.748771,0 -1.361157,0.087 -1.361157,0.19327 0,0.10632 0.436386,0.59127 0.969966,1.07797 0.90094,0.82176 0.913347,0.86941 0.176217,0.66508 -1.14259,-0.31673 -0.981434,0.11876 0.529167,1.4304 1.391319,1.20807 1.416696,2.04848 0.03255,1.07901 -1.844209,-1.29175 -1.294595,-0.40103 1.256255,2.03656 1.49751,1.43101 3.339037,2.8798 4.092258,3.21944 1.099653,0.49588 1.607743,1.07793 2.578653,2.95435 0.66503,1.28527 1.491736,3.09693 1.837097,4.02559 0.62166,1.67163 0.620077,1.6951 -0.136943,2.40037 -0.688689,0.64161 -0.713851,0.78486 -0.25373,1.44177 0.280979,0.40116 0.879038,0.91301 1.329118,1.1374 0.45008,0.2244 0.818555,0.60773 0.818555,0.85163 0,0.24386 0.191008,0.56144 0.424778,0.7059 0.671862,0.41524 6.454389,11.99648 6.454389,12.92686 0,0.46053 0.187055,0.89987 0.415993,0.97617 0.24683,0.0823 0.315593,0.4008 0.168982,0.78289 -0.238199,0.62068 -0.27458,0.61998 -0.999937,-0.0212 l -0.752928,-0.66559 0.622702,0.96738 c 0.38848,0.6037 0.542005,1.28916 0.408244,1.82211 -0.197889,0.78846 -0.295608,0.82328 -1.273307,0.45424 -0.58257,-0.2199 -1.059368,-0.52486 -1.059368,-0.678 0,-0.15314 -0.311861,-0.084 -0.69298,0.154 -0.486921,0.30435 -0.633005,0.67157 -0.490927,1.23765 0.127341,0.50736 0.0434,0.80512 -0.226859,0.80512 -0.24711,0 -0.337513,0.23783 -0.213423,0.5612 0.119369,0.31105 -0.122076,1.03537 -0.542087,1.62523 -0.775959,1.08972 -1.514776,1.18236 -3.654557,0.45682 -0.574349,-0.19476 -0.54207,-0.10641 0.174149,0.47697 0.483902,0.39415 1.555472,0.90621 2.38125,1.1374 1.45638,0.40778 2.045613,1.03405 0.972553,1.03405 -0.291042,0 -0.529167,0.17588 -0.529167,0.39067 0,0.2148 -0.238128,0.29398 -0.529167,0.17622 -1.524071,-0.6168 -1.718828,-0.5949 -0.882118,0.0982 0.74536,0.61743 0.783262,0.73094 0.243914,0.73794 -0.350951,0.004 -0.540041,0.16668 -0.420129,0.3607 0.123658,0.20008 -0.172728,0.35295 -0.684713,0.35295 -0.496522,0 -0.902787,0.1629 -0.902787,0.36174 0,0.64612 1.646801,1.03387 2.884061,0.67902 1.441868,-0.41359 1.439127,-0.41375 1.172539,0.0176 -0.11992,0.19405 -0.596165,0.35295 -1.058334,0.35295 -0.462161,0 -0.938413,0.15842 -1.058333,0.35244 -0.11992,0.19402 -0.645242,0.35511 -1.167371,0.35811 -0.522131,0.003 -0.784982,0.12205 -0.584462,0.26459 0.200512,0.14255 0.356016,0.49754 0.345715,0.78858 -0.01026,0.29104 0.270889,0.84606 0.624769,1.23352 0.62453,0.68376 0.620996,0.72258 -0.120407,1.32291 l -0.763775,0.61857 h 0.744657 c 0.446148,0 0.744646,0.2254 0.744656,0.56224 0,0.30919 0.317323,0.64525 0.705385,0.74672 0.388059,0.1015 0.7059,0.34188 0.7059,0.53434 0,0.19701 0.3849,0.25282 0.8816,0.12816 0.93704,-0.2352 1.144481,0.0942 0.478522,0.76016 -0.30294,0.30295 -0.204914,0.35198 0.392224,0.19585 0.437541,-0.11444 1.438648,-0.82017 2.225188,-1.56838 0.78654,-0.74822 1.48181,-1.30934 1.544608,-1.24644 0.06285,0.0628 -0.376655,0.89697 -0.976685,1.85312 l -1.090888,1.7384 1.31775,-1.23507 c 1.259496,-1.18007 1.308502,-1.19556 1.10949,-0.34985 -0.254598,1.08196 0.214852,1.95917 0.841293,1.572 0.31646,-0.19558 0.388615,-0.11366 0.240295,0.27285 -0.297794,0.7761 0.659392,0.57662 1.346173,-0.28061 0.526928,-0.65772 0.533212,-0.65325 0.163814,0.10904 -0.54175,1.11791 0.127355,1.00601 1.057815,-0.17673 1.074025,-1.36522 1.800825,-3.24521 1.590085,-4.11344 -0.0984,-0.40531 -0.0849,-0.53031 0.03,-0.27751 0.16064,0.35373 0.30802,0.32363 0.64027,-0.13074 0.37709,-0.51569 0.52925,-0.36463 1.19941,1.19321 0.422,0.98102 0.76739,2.105 0.76739,2.49804 0,0.39304 0.32625,1.01859 0.72502,1.3901 0.55212,0.51437 0.79272,1.34862 1.00924,3.49642 0.15639,1.55131 0.38379,2.98136 0.5054,3.1781 0.1216,0.19678 0.0448,0.86405 -0.17105,1.48312 -0.2894,0.82958 -0.28874,1.23007 0.004,1.52239 0.56324,0.56324 0.49134,1.85437 -0.13229,2.37194 -0.30388,0.2522 -0.52917,1.02158 -0.52917,1.80713 0,0.92723 -0.15659,1.36787 -0.48627,1.36787 -0.2675,0 -0.6851,0.47912 -0.92759,1.06454 -0.29229,0.70564 -0.9903,1.3351 -2.0712,1.86707 -1.21491,0.59794 -2.169776,1.53061 -3.747057,3.66076 -1.164159,1.57222 -2.56326,3.12835 -3.109371,3.45818 -0.5461,0.32983 -1.166865,0.98135 -1.379243,1.44746 -0.227251,0.49877 -1.480479,1.44773 -3.04581,2.30683 -1.46282,0.80283 -4.389622,2.54412 -6.504511,3.86902 -2.114886,1.32493 -5.46785,3.21487 -7.450709,4.20026 -3.185829,1.58324 -3.992499,1.83125 -6.932911,2.13062 -7.52874,0.76653 -8.658138,1.11811 -18.673278,5.8105 -6.1545,2.88353 -10.361176,4.63255 -12.312425,5.11906 -1.630162,0.40646 -3.694084,1.10661 -4.586285,1.55598 -0.892199,0.44937 -2.773937,1.23049 -4.181657,1.73581 -2.843726,1.02079 -4.319633,1.86654 -4.319633,2.4753 0,0.22177 -0.396528,1.1486 -0.881599,2.05983 -0.872993,1.63988 -1.14354,3.24962 -0.602031,3.58427 0.154109,0.0953 0.950188,-0.12644 1.768885,-0.49299 0.818703,-0.36653 2.081612,-0.77074 2.806547,-0.89814 0.724929,-0.12738 2.111843,-0.76737 3.081983,-1.42213 0.97014,-0.65479 3.62209,-1.97522 5.893178,-2.93471 2.271101,-0.95948 4.731544,-2.15685 5.467885,-2.66082 1.77419,-1.21435 3.786528,-1.76185 10.33477,-2.81068 3.007439,-0.48173 7.055554,-1.3731 8.995833,-1.98075 2.61783,-0.81989 4.66521,-1.18826 7.9375,-1.42938 5.416338,-0.39906 6.416326,-0.61726 13.934548,-3.03857 5.299051,-1.70664 11.158887,-3.24757 12.435417,-3.26957 0.24253,-0.004 0.441317,0.37783 0.441317,0.84905 0,1.34943 0.89241,1.96577 2.847372,1.96577 1.310315,0 1.738395,-0.13036 1.738395,-0.52917 0,-0.64223 -0.23434,-0.64331 2.87063,0.01 1.57571,0.33147 2.81944,0.81349 3.22616,1.25005 0.70021,0.75158 1.54986,0.67837 2.88975,-0.24908 1.03319,-0.71514 1.43896,-0.61538 3.67987,0.9064 1.82647,1.24034 2.10162,1.33177 2.57918,0.85422 0.47756,-0.47757 0.96267,-0.35825 4.55062,1.12241 2.20891,0.91157 5.97205,2.11503 8.36228,2.67425 3.96376,0.92742 4.63047,1.20488 7.58455,3.15433 4.20164,2.77276 7.00831,4.07256 9.41286,4.35943 2.09534,0.25 14.28072,2.83138 16.10703,3.41219 0.73341,0.23326 1.51695,0.9526 2.29288,2.10427 h 5.3e-4 c 1.35027,2.00409 1.92224,2.05744 4.3093,0.40049 3.43354,-2.3833 3.21012,-2.31668 7.86516,-2.33888 2.39223,-0.0113 4.35001,-0.11409 4.35012,-0.22789 1e-4,-0.11377 -0.83344,-0.61732 -1.85209,-1.11931 -1.83766,-0.90562 -5.92658,-1.96825 -10.6717,-2.77296 -5.00558,-0.84881 -8.95052,-2.04292 -13.24053,-4.00751 -2.41907,-1.10778 -6.06506,-2.64485 -8.10235,-3.41633 -2.8537,-1.0806 -4.06866,-1.75397 -5.29167,-2.9316 -0.87313,-0.84072 -3.45263,-2.74766 -5.73246,-4.23798 -2.27983,-1.49029 -4.14549,-2.74893 -4.14549,-2.79673 0,-0.0478 0.63275,-0.78835 1.40612,-1.6459 0.77337,-0.85753 1.40828,-1.82885 1.41128,-2.15852 0.007,-0.83089 -1.86101,-2.16056 -4.57491,-3.25665 -1.2579,-0.50802 -2.87515,-1.49783 -3.59358,-2.19935 -1.1736,-1.14599 -1.45063,-1.25593 -2.72748,-1.08469 -1.12485,0.15086 -1.45587,0.069 -1.5875,-0.3917 -0.37474,-1.31173 -0.0744,-4.78173 0.88987,-10.28361 0.8904,-5.08077 0.96851,-6.05279 0.61494,-7.64501 -0.33409,-1.50457 -0.30345,-2.22817 0.17415,-4.12947 1.00942,-4.01854 0.83709,-4.7658 -1.77663,-7.71736 -0.64481,-0.72816 -1.17794,-1.60147 -1.18494,-1.94045 -0.0178,-0.86567 -1.31511,-2.30557 -3.04426,-3.37912 -1.88054,-1.16753 -2.11924,-1.58189 -1.12345,-1.95027 0.77188,-0.28554 0.75319,-0.32144 -0.46974,-0.90175 -1.41663,-0.67225 -1.95202,-2.02723 -1.0852,-2.7466 0.44544,-0.36971 0.41447,-0.5104 -0.22583,-1.02888 -1.12141,-0.90805 -0.89511,-1.46725 0.94103,-2.32647 l 1.66863,-0.78083 -1.76371,0.17776 -1.76372,0.17829 1.23455,-0.74208 c 1.11354,-0.66889 0.9193,-0.71753 -0.52658,-0.13229 -0.46678,0.18894 -0.46678,0.044 0,-1.27899 0.74464,-2.11055 0.66217,-2.72636 -0.44339,-3.30057 -1.54486,-0.80235 -3.76954,-2.68761 -4.04781,-3.43029 -0.21167,-0.56495 -0.483,-0.64572 -1.5875,-0.47284 -1.30136,0.20367 -1.38122,0.15031 -3.44889,-2.31407 -4.51381,-5.37985 -5.04808,-6.12103 -6.557222,-9.09867 -0.85629,-1.68955 -1.794621,-3.21609 -2.08566,-3.39204 -0.291042,-0.17595 -1.275345,-1.12272 -2.187464,-2.10426 -1.816582,-1.95489 -2.557436,-2.01392 -1.380794,-0.11007 0.957699,1.54959 0.942578,1.65261 -0.242364,1.65261 -0.85824,0 -1.213326,-0.37286 -2.702676,-2.83652 -1.734021,-2.8684 -3.364654,-7.54454 -3.364654,-9.64902 0,-1.11008 -0.300053,-1.62253 -2.998782,-5.12734 -0.899102,-1.16765 -1.450954,-1.63973 -1.521354,-1.30069 -0.06077,0.29266 0.05829,0.84753 0.264583,1.233 0.206299,0.38547 0.375172,0.96734 0.375172,1.29346 0,0.54072 -0.08571,0.53586 -0.970484,-0.06 -2.210012,-1.48825 -4.837107,-2.60294 -6.135026,-2.60294 z"
       style="fill:#000000;stroke-width:0.35277778" />
    <path
       id="path1661"
       transform="scale(0.26458333)"
       d="m -152.65234,1218.582 c -0.0395,0.8983 -0.0188,1.8004 0.0449,2.6973 0.003,0.04 0.0219,-0.078 0.0332,-0.1172 -0.0253,-0.8347 -0.051,-1.6692 -0.0762,-2.5039 -8.3e-4,-0.025 -9e-4,-0.051 -0.002,-0.076 z"
       style="fill:#000000;stroke-width:1.33333337" />
    <path
       id="path895"
       transform="scale(0.26458333)"
       d="m -152.88672,1218.9805 c -0.35487,0.9294 -0.65794,1.7978 -0.25195,1.2246 -0.48681,2.472 -0.10469,0.5022 0.25195,-1.2246 z"
       style="fill:#000000;stroke-width:1.33333337" />
    <g
       id="text1758"
       style="font-style:normal;font-weight:normal;font-size:8.46666622px;line-height:1.25;font-family:sans-serif;letter-spacing:0px;word-spacing:0px;fill:#000000;fill-opacity:1;stroke:none;stroke-width:0.26458332"
       aria-label="Maïa">
      <path
         id="path1779"
         style="font-style:normal;font-variant:normal;font-weight:normal;font-stretch:normal;font-size:50.79999924px;font-family:UnPilgia;-inkscape-font-specification:UnPilgia;stroke-width:0.26458332"
         d="m 43.742675,115.47975 -0.0508,0.254 q 0,0.6096 -0.762,1.524 l -0.4064,7.2644 -0.3048,12.3952 q 0,3.3528 0.4572,9.8044 l 0.0508,0.7112 q 0.1016,0.5588 -0.2032,0.8128 l -0.6096,0.2032 -0.762,0.254 -0.7112,0.2032 q -0.7112,0 -0.8128,-1.9304 l -0.1524,-5.5372 0.1524,-5.08 0.3048,-5.6388 0.254,-5.334 -1.9304,7.5184 -1.5748,5.7404 -1.9812,6.096 q -0.0508,0.1524 -0.6096,0.5588 l -0.508,0.1524 q -0.4064,0 -0.7112,-1.016 -0.3556,-1.1176 -1.1176,-4.6736 l -0.8128,-5.842 -1.0668,-11.1252 -1.524,16.1036 -0.1016,3.1496 v 4.2164 l -0.0508,0.3556 q 0,0.6096 -0.2032,0.9652 -0.3048,0.4572 -0.8636,0.9144 -1.0668,0.9144 -1.4732,0.9144 -0.3556,0 -0.4064,-0.8128 l 0.1016,-1.0668 0.2032,-1.27 0.1016,-0.8128 0.1016,-0.7112 3.5052,-28.5496 0.762,-0.254 1.2192,-0.4572 0.3048,-0.0508 q 0.3048,0 0.3556,0.6096 l -0.0508,0.508 v 0.508 l -0.0508,1.3716 0.0508,1.3716 0.8128,10.3124 0.6096,4.4704 q 0.3048,2.4892 1.1176,6.1976 l 0.8128,-2.9464 1.016,-3.4544 1.7272,-6.2992 1.6256,-6.6548 0.4572,-2.4384 0.508,-2.3368 0.3048,-0.2032 0.3556,-0.254 0.3048,-0.1524 1.1176,-0.6604 0.9144,-0.3048 z" />
      <path
         id="path1781"
         style="font-style:normal;font-variant:normal;font-weight:normal;font-stretch:normal;font-size:50.79999924px;font-family:UnPilgia;-inkscape-font-specification:UnPilgia;stroke-width:0.26458332"
         d="m 62.995777,146.82335 q -2.8956,3.2004 -4.9276,3.2004 -3.1496,0 -3.1496,-7.2644 l -1.0668,2.032 -1.1684,2.032 q -0.7112,1.1684 -1.778,2.032 -1.27,0.9652 -2.4892,0.9652 -1.1684,0 -2.4384,-1.27 -1.27,-1.2192 -1.27,-5.4864 v -1.6256 l 0.3048,-2.4384 q 0.6604,-5.0292 4.0132,-10.0584 1.778,-2.6416 4.7752,-3.4544 l 0.5588,-0.1016 q 0.762,0 1.0668,0.762 l 0.1016,0.8128 q 0,1.4224 -0.8128,2.6924 -0.3556,0.3556 -0.9144,0.4064 -0.8128,0 -2.2352,-1.1176 l -0.9652,1.6256 -1.1684,2.286 q -1.8796,3.7084 -1.8796,8.6868 0,4.6228 2.1336,4.826 1.3716,0 2.286,-1.7272 l 1.524,-2.8956 1.27,-2.8956 0.4064,-5.4864 q 0.1016,-1.5748 0.6096,-4.5212 l 0.254,-1.4732 0.254,-1.0668 q 0.1524,-0.762 1.016,-0.9144 l 0.762,-0.1524 q 1.3208,0 1.6764,0.6604 0.3556,0.508 0.4064,1.27 0,0.4572 -0.254,1.3716 l -0.4064,1.4224 -2.286,7.62 0.3048,6.35 q 0.1524,2.794 1.6256,2.794 1.1176,0 2.9972,-1.778 z" />
      <path
         id="path1783"
         style="font-style:normal;font-variant:normal;font-weight:normal;font-stretch:normal;font-size:50.79999924px;font-family:UnPilgia;-inkscape-font-specification:UnPilgia;stroke-width:0.26458332"
         d="m 81.182079,118.83255 q 0,2.9464 -2.2352,2.9464 -0.8636,0 -1.524,-0.8128 -0.7112,-0.8636 -0.7112,-2.1336 0,-1.3208 0.7112,-2.1336 0.7112,-0.7112 1.524,-0.7112 1.0668,0 1.7272,0.9144 0.508,0.8128 0.508,1.9304 z m -9.5504,0 q 0,1.524 -0.6096,2.1844 -0.6604,0.762 -1.5748,0.762 -0.9144,0 -1.6256,-0.762 -0.6096,-0.762 -0.6096,-2.1844 0,-0.8636 0.2032,-1.3208 l 0.4064,-0.7112 0.5588,-0.508 q 0.4572,-0.3048 1.0668,-0.3048 0.8636,0 1.5748,0.7112 0.6096,0.8128 0.6096,2.1336 z m 10.3632,27.8892 q -3.7592,3.4544 -7.366,3.4544 -2.794,0 -3.4036,-1.5748 l -0.6604,-2.286 -0.3556,-1.524 q -0.0508,-0.3556 -0.1524,-2.0828 l -0.1016,-2.8448 -3.8608,3.9624 -3.0988,2.9972 -0.8636,-1.8796 q 4.0132,-3.6576 7.8232,-7.874 l 0.508,-3.302 0.8128,-3.8608 0.4572,-1.4224 q 0.3556,-1.1176 0.9652,-1.3716 l 1.8288,-0.6604 q 0.9144,0 0.9144,1.0668 l -0.1524,1.4224 q -0.1524,1.6764 -0.9144,3.2004 -0.1524,0.2032 -0.3048,0.5588 -0.1524,0.3556 -0.254,0.508 l -1.3208,2.1844 v 0.3048 l -0.1016,0.9144 -0.1016,1.8796 -0.0508,2.0828 q -0.0508,4.9784 1.6764,6.2484 0.8636,0.6604 1.9812,0.6604 1.1176,0 1.778,-0.3556 l 1.6256,-0.8636 1.8796,-1.4224 z" />
      <path
         id="path1785"
         style="font-style:normal;font-variant:normal;font-weight:normal;font-stretch:normal;font-size:50.79999924px;font-family:UnPilgia;-inkscape-font-specification:UnPilgia;stroke-width:0.26458332"
         d="m 101.09558,146.82335 q -2.895601,3.2004 -4.927601,3.2004 -3.1496,0 -3.1496,-7.2644 l -1.0668,2.032 -1.1684,2.032 q -0.7112,1.1684 -1.778,2.032 -1.27,0.9652 -2.4892,0.9652 -1.1684,0 -2.4384,-1.27 -1.27,-1.2192 -1.27,-5.4864 v -1.6256 l 0.3048,-2.4384 q 0.6604,-5.0292 4.0132,-10.0584 1.778,-2.6416 4.7752,-3.4544 l 0.5588,-0.1016 q 0.762,0 1.0668,0.762 l 0.1016,0.8128 q 0,1.4224 -0.8128,2.6924 -0.3556,0.3556 -0.9144,0.4064 -0.8128,0 -2.2352,-1.1176 l -0.9652,1.6256 -1.1684,2.286 q -1.8796,3.7084 -1.8796,8.6868 0,4.6228 2.1336,4.826 1.3716,0 2.286,-1.7272 l 1.524,-2.8956 1.27,-2.8956 0.4064,-5.4864 q 0.1016,-1.5748 0.6096,-4.5212 l 0.254,-1.4732 0.254,-1.0668 q 0.1524,-0.762 1.016,-0.9144 l 0.762,-0.1524 q 1.3208,0 1.6764,0.6604 0.3556,0.508 0.4064,1.27 0,0.4572 -0.254,1.3716 l -0.4064,1.4224 -2.286,7.62 0.3048,6.35 q 0.1524,2.794 1.6256,2.794 1.1176,0 2.997201,-1.778 z" />
    </g>
  </g>
</svg>
