<?xml version="1.0" encoding="UTF-8" standalone="no"?>
<svg
   xmlns:dc="http://purl.org/dc/elements/1.1/"
   xmlns:cc="http://creativecommons.org/ns#"
   xmlns:rdf="http://www.w3.org/1999/02/22-rdf-syntax-ns#"
   xmlns:svg="http://www.w3.org/2000/svg"
   xmlns="http://www.w3.org/2000/svg"
   id="svg877"
   version="1.1"
   viewBox="0 0 48.748764 38.590279"
   height="38.590279mm"
   width="48.748764mm">
  <defs
     id="defs871" />
  <metadata
     id="metadata874">
    <rdf:RDF>
      <cc:Work
         rdf:about="">
        <dc:format>image/svg+xml</dc:format>
        <dc:type
           rdf:resource="http://purl.org/dc/dcmitype/StillImage" />
        <dc:title></dc:title>
      </cc:Work>
    </rdf:RDF>
  </metadata>
  <g
     transform="translate(-3.5958315,-6.3179656)"
     id="layer1">
    <path
       id="path860"
       d="m 26.122448,44.885443 c -0.16314,-0.0189 -0.65894,-0.0764 -1.10177,-0.12765 -0.44283,-0.0513 -1.30093,-0.21827 -1.90691,-0.37115 -3.55362,-0.89651 -6.38436,-2.65019 -7.8437,-4.8593 l -0.46193,-0.69927 -0.0495,0.29458 c -0.0582,0.34634 -0.18979,0.52372 -0.51219,0.69044 -0.35761,0.18493 -0.67893,0.14756 -1.22735,-0.14272 -2.3179,-1.22687 -3.5184704,-2.74296 -3.2582304,-4.11453 0.10813,-0.56986 -0.0221,-0.73315 -0.91091,-1.14181 -2.06808,-0.95094 -3.70373,-2.58608 -4.68001,-4.67857 -0.64492,-1.38225 -0.7327,-2.16011 -0.33264,-2.94767 0.10365,-0.20406 0.68322,-0.97753 1.28793,-1.71882 l 1.09947,-1.3478 0.0396,-0.68623 c 0.20525,-3.55547 2.75381,-7.65002 7.0182904,-11.27572 2.04041,-1.73477 3.05259,-2.4142797 5.06267,-3.3987297 3.08077,-1.50883 6.59112,-2.24642 9.48838,-1.99369 2.62405,0.22889 5.14828,1.09487 6.63681,2.27686 0.92738,0.7364 2.41831,2.2948897 3.24002,3.3868597 2.16577,2.87804 3.35468,5.82075 3.69048,9.13439 l 0.11138,1.09905 0.56744,-0.013 c 0.56673,-0.013 0.83058,-0.12117 2.20984,-0.90593 0.0948,-0.0539 0.50198,-0.3841 0.90487,-0.7337 1.35759,-1.17804 2.45617,-1.66512 3.59132,-1.59227 1.14501,0.0735 2.01861,0.78476 2.71785,2.21283 0.63416,1.29517 0.83096,2.10243 0.84046,3.44751 0.009,1.32906 -0.10633,1.874 -0.62091,2.92392 -0.6203,1.26565 -1.66625,2.16116 -2.52421,2.16116 -0.20147,0 -0.77838,-0.13321 -1.28201,-0.29602 -0.50364,-0.16282 -1.40871,-0.44472 -2.01128,-0.62645 -0.60257,-0.18173 -1.38138,-0.43181 -1.7307,-0.55573 -0.63847,-0.22651 -1.75072,-0.36992 -2.13021,-0.27467 -0.17871,0.0449 -0.2036,0.10483 -0.22472,0.54147 -0.028,0.57864 -0.28776,1.58683 -0.53754,2.08631 -0.0974,0.19469 -0.382,0.62423 -0.63252,0.95452 -0.62221,0.82037 -0.82717,1.31653 -1.12589,2.72562 -0.34183,1.61245 -0.49647,1.89604 -1.65237,3.03021 -1.0771,1.05684 -1.72571,1.9507 -2.14121,2.95084 -0.98371,2.36778 -3.0891,3.89721 -6.09092,4.42467 -0.74189,0.13035 -2.92005,0.22957 -3.51719,0.16021 z m 1.18652,-1.01083 c 0,-0.0238 -0.15163,-0.26547 -0.33695,-0.53697 -0.43475,-0.6369 -0.94222,-1.66171 -1.23399,-2.49193 l -0.23082,-0.65683 h -0.79415 c -0.44829,0 -0.79415,0.0353 -0.79415,0.081 0,0.0818 1.15307,2.6602 1.44972,3.2418 0.15988,0.31345 0.16149,0.31416 0.77484,0.34335 0.33804,0.0161 0.73856,0.0368 0.89006,0.0461 0.15149,0.009 0.27544,-0.003 0.27544,-0.0265 z m 1.67766,-0.093 0.25807,-0.0516 -0.27991,-0.39333 c -0.51985,-0.73052 -0.97537,-1.8371 -1.23525,-3.00077 -0.0842,-0.3769 -0.1399,-0.48007 -0.24367,-0.45108 -0.074,0.0207 -0.34428,0.0614 -0.60066,0.0906 -0.25637,0.0291 -0.56909,0.0726 -0.69493,0.0967 l -0.22879,0.0437 0.25553,0.6934 c 0.35775,0.97078 0.96272,2.08624 1.40677,2.59386 0.3429,0.39199 0.40869,0.43021 0.74055,0.43021 0.20032,0 0.48035,-0.0232 0.62229,-0.0516 z m -3.96595,-0.1203 c 0,-0.0479 -0.10967,-0.30538 -0.24372,-0.57208 -0.13405,-0.26669 -0.46152,-0.9807 -0.72771,-1.58667 -0.26619,-0.60597 -0.53137,-1.15109 -0.58929,-1.21137 -0.0736,-0.0766 -0.31467,-0.10211 -0.79988,-0.0848 l -0.69457,0.0248 0.50401,1.01702 c 0.27721,0.55936 0.68063,1.29124 0.89649,1.6264 0.38572,0.59889 0.40079,0.6111 0.87526,0.70857 0.26553,0.0546 0.52092,0.11103 0.56753,0.1255 0.16211,0.0503 0.21188,0.0392 0.21188,-0.0475 z m 5.42015,-0.17169 c 0.34556,-0.0958 0.66098,-0.19431 0.70093,-0.219 0.04,-0.0247 -0.055,-0.1862 -0.21105,-0.3589 -0.66835,-0.73978 -1.15353,-1.63749 -1.49784,-2.7714 l -0.18203,-0.59948 -0.61074,0.12704 c -0.33591,0.0699 -0.62457,0.13736 -0.64148,0.14996 -0.11195,0.0835 0.42886,1.77548 0.8179,2.55899 0.28696,0.57789 0.80339,1.28689 0.93736,1.28689 0.0323,0 0.3414,-0.0784 0.68695,-0.1741 z m -7.45418,-0.27756 c 0,-0.0154 -0.16209,-0.31237 -0.3602,-0.66003 -0.1981,-0.34767 -0.55088,-1.03658 -0.78395,-1.53092 l -0.42375,-0.8988 -0.49623,-0.0567 c -0.27293,-0.0312 -0.51531,-0.0376 -0.53862,-0.0143 -0.0519,0.0519 0.72981,1.79279 1.07837,2.40156 0.23346,0.40771 0.29394,0.45482 0.78275,0.60968 0.51046,0.16173 0.74163,0.20831 0.74163,0.14945 z m 9.47135,-0.5876 0.44533,-0.26828 -0.41828,-0.42681 c -0.51857,-0.52914 -1.09323,-1.45605 -1.44735,-2.33455 l -0.26936,-0.66821 -0.46896,0.20739 c -0.25793,0.11407 -0.48328,0.2074 -0.50079,0.2074 -0.16727,0 0.25058,1.27234 0.70203,2.13767 0.38083,0.72996 1.14497,1.55111 1.3663,1.46824 0.0802,-0.03 0.34615,-0.1753 0.59108,-0.32285 z m -11.9287,-1.27266 c -0.32654,-0.68064 -0.5937,-1.27722 -0.5937,-1.32572 0,-0.0485 -0.10488,-0.11191 -0.23307,-0.1409 -0.12819,-0.029 -0.4412,-0.10443 -0.69559,-0.16766 -0.25439,-0.0632 -0.47409,-0.10339 -0.48823,-0.0893 -0.11818,0.11819 0.92468,2.19152 1.18918,2.36421 0.22286,0.14551 1.36038,0.65158 1.39246,0.6195 0.0125,-0.0125 -0.24452,-0.57953 -0.57105,-1.26017 z m 13.28817,0.11738 0.46015,-0.54176 -0.25909,-0.10894 c -0.608,-0.25564 -1.36659,-1.17406 -1.75101,-2.1199 -0.10462,-0.2574 -0.21168,-0.47549 -0.23792,-0.48466 -0.11512,-0.0402 -0.9067,0.49788 -0.9056,0.61559 0.002,0.22806 0.83307,1.87023 1.22245,2.41589 0.39623,0.55526 0.68896,0.81313 0.88943,0.78349 0.0668,-0.01 0.32851,-0.26175 0.58159,-0.55971 z m -15.33625,-0.60317 c -0.13345,-0.28018 -0.30893,-0.71788 -0.38996,-0.97268 -0.13511,-0.42485 -0.17718,-0.47353 -0.50751,-0.5872 -0.19811,-0.0682 -0.3602,-0.0876 -0.3602,-0.0433 0,0.1569 0.33799,1.29786 0.4016,1.35567 0.17128,0.15569 1.00298,0.75621 1.04775,0.75653 0.028,1.7e-4 -0.0582,-0.22887 -0.19168,-0.50905 z m 16.28867,-0.95074 c 0.10688,-0.29232 0.22767,-0.57526 0.26844,-0.62876 0.0478,-0.0628 -0.075,-0.29425 -0.34648,-0.65294 -0.23132,-0.30562 -0.56083,-0.79579 -0.73223,-1.08926 -0.1714,-0.29347 -0.32509,-0.54776 -0.34154,-0.56509 -0.0417,-0.0439 -1.13927,0.83679 -1.13927,0.91409 0,0.16106 0.46413,1.17923 0.67746,1.48616 0.40084,0.5767 1.18792,1.21031 1.36642,1.09998 0.0291,-0.018 0.14033,-0.27186 0.2472,-0.56418 z m -17.88825,-0.45822 c -0.15074,-0.44636 -0.20898,-0.52159 -0.48673,-0.62874 -0.17353,-0.0669 -0.34781,-0.13584 -0.3873,-0.15312 -0.13147,-0.0575 0.11267,0.31659 0.54779,0.83945 0.23656,0.28425 0.44526,0.50166 0.46379,0.48313 0.0185,-0.0185 -0.0434,-0.26185 -0.13755,-0.54072 z m 9.45295,-0.45469 c 2.43206,-0.31227 3.44178,-0.63426 4.84395,-1.54469 1.94033,-1.25984 2.57334,-1.99394 5.0991,-5.9134 0.8583,-1.3319 2.01953,-2.67285 2.90401,-3.35344 0.63691,-0.49009 1.50699,-0.92727 2.195,-1.1029 0.83454,-0.21303 2.11573,-0.13453 3.06807,0.188 0.87449,0.29616 0.8393,0.33614 0.74002,-0.84049 -0.10551,-1.25051 -0.62652,-3.95957 -0.76151,-3.95957 -0.0354,0 -0.32512,0.14945 -0.64385,0.33212 -0.73988,0.42403 -1.39768,0.55456 -2.47039,0.49021 -1.38685,-0.0832 -2.4148,-0.45681 -3.36083,-1.22153 -0.70246,-0.56782 -1.25258,-1.28035 -1.99454,-2.58343 -0.78562,-1.37973 -1.17479,-1.91676 -2.06075,-2.84372 -2.28281,-2.38844 -4.97187,-3.94507 -7.73872,-4.47976 -0.99144,-0.19159 -2.77091,-0.19081 -3.84551,0.002 -2.31732,0.41511 -4.95223,1.72481 -7.37338,3.66499 -1.3226,1.05986 -3.12564,2.9184 -5.2005304,5.3606 -5.47389,6.44289 -5.29975,6.19625 -5.0192,7.10885 0.39531,1.2859 1.32534,2.75827 2.32474,3.68042 0.66708,0.61551 1.07816,0.89698 1.95789,1.34058 l 0.7057,0.35583 0.7723604,-0.26055 c 1.03459,-0.34902 1.31999,-0.41701 2.36768,-0.56408 1.14763,-0.1611 1.72393,-0.38102 2.25894,-0.86205 0.69885,-0.62832 0.88249,-1.02122 1.53818,-3.29094 0.18852,-0.65258 0.43014,-1.30174 0.53692,-1.44256 0.10678,-0.14083 0.38956,-0.34757 0.62839,-0.45943 0.23883,-0.11187 0.43424,-0.24004 0.43424,-0.28484 0,-0.0448 -0.0769,-0.20584 -0.17084,-0.35787 -0.19085,-0.3088 -0.6206,-0.5483 -0.98611,-0.54955 -0.74353,-0.003 -1.81684,-0.90437 -2.73491,-2.29794 -0.61018,-0.9262 -0.66953,-1.09962 -0.47697,-1.39352 0.11128,-0.16982 0.19956,-0.21062 0.41127,-0.19007 0.23618,0.0229 0.33793,0.12727 0.82111,0.84203 1.02042,1.50948 1.57914,2.0211 2.21163,2.02517 0.9645,0.006 2.02005,1.11003 1.91898,2.00674 -0.0572,0.50701 -0.25103,0.7581 -0.78918,1.02203 l -0.46549,0.2283 -0.216,0.72239 c -0.1188,0.39731 -0.33097,1.10376 -0.47149,1.5699 -0.73474,2.4373 -1.80188,3.36132 -4.30659,3.72904 -0.86827,0.12747 -1.58091,0.29419 -2.0589,0.48166 l -0.23675,0.0928 0.19437,0.21225 c 0.68283,0.74562 2.39115,1.74371 3.85355,2.25142 0.4743,0.16467 1.00824,0.38965 1.18652,0.49995 1.24347,0.76934 3.42479,1.44614 5.36685,1.66517 1.24379,0.14028 3.64042,0.10423 5.04297,-0.0759 z m -4.7453,-0.23826 c -0.26225,-0.0618 -0.38294,-0.3036 -0.22857,-0.45797 0.0522,-0.0522 0.766,-0.0801 1.85129,-0.0724 1.91224,0.0136 2.8565,-0.0646 4.56309,-0.37774 1.28566,-0.23594 2.14677,-0.61648 3.3862,-1.49645 1.37399,-0.97551 2.06434,-1.76892 3.56291,-4.09486 1.2899,-2.00205 1.89033,-2.81232 2.748,-3.70835 0.58341,-0.6095 0.84569,-0.82712 0.97464,-0.80869 0.10921,0.0156 0.18688,0.0988 0.20385,0.21844 0.0206,0.14523 -0.12407,0.34472 -0.58232,0.80297 -0.85474,0.85474 -1.51407,1.7252 -2.68644,3.54665 -0.5581,0.86711 -1.1796,1.80149 -1.3811,2.07641 -1.33998,1.82822 -3.73682,3.52646 -5.55094,3.93301 -1.40767,0.31547 -2.60466,0.4379 -4.57336,0.46777 -1.11872,0.017 -2.14799,0.004 -2.28725,-0.0288 z m -11.22458,-8.04629 c -0.4258904,-0.21717 -0.6134104,-0.51891 -0.6134104,-0.98709 0,-0.61661 0.3505604,-1.02323 0.9686304,-1.12353 0.38466,-0.0624 0.87995,0.17171 1.08922,0.51488 0.34052,0.55841 0.0993,1.38222 -0.47496,1.62216 -0.38326,0.16014 -0.61606,0.15379 -0.96948,-0.0264 z m 0.82263,-0.57674 c 0.3909,-0.2738 0.15612,-0.96984 -0.32713,-0.96984 -0.23544,0 -0.58627,0.32965 -0.58627,0.55088 0,0.19298 0.34965,0.55089 0.53817,0.55089 0.10278,0 0.27164,-0.0594 0.37523,-0.13193 z m -5.0075804,0.36984 c -0.63992,-0.84756 -1.28441,-2.38211 -1.20295,-2.86428 0.059,-0.34945 0.82284,-1.30834 4.35502,-5.46739 2.8027604,-3.30018 3.2491504,-3.79128 4.4169104,-4.85923 2.99066,-2.73503 5.73232,-4.26979 8.60227,-4.81549 1.11853,-0.21268 2.88318,-0.19157 4.02007,0.0481 2.68032,0.56501 5.48805,2.29628 7.63388,4.70712 0.5391,0.60568 0.96009,1.2032 1.49279,2.11878 0.89022,1.53009 1.08175,1.80456 1.70982,2.45021 1.12889,1.16051 2.36795,1.69972 4.14679,1.8046 0.96966,0.0572 1.67564,-0.053 2.25475,-0.35182 0.31588,-0.16299 0.4464,-0.19129 0.57207,-0.12404 0.33297,0.1782 0.13491,0.46161 -0.52729,0.75453 -0.59981,0.26533 -1.44391,0.3512 -2.59403,0.2639 -1.81292,-0.13761 -3.01867,-0.68935 -4.25873,-1.94875 -0.70128,-0.71222 -1.01772,-1.17293 -2.07641,-3.02302 -0.23307,-0.40729 -0.74124,-1.09768 -1.12929,-1.53421 -2.10218,-2.36481 -4.75341,-4.00332 -7.38823,-4.56602 -0.99271,-0.21201 -2.91723,-0.21617 -3.88795,-0.008 -3.77545,0.8081 -7.26101,3.24118 -11.0705,7.72772 -0.71243,0.83904 -1.7658004,2.07853 -2.3408304,2.75442 -1.88493,2.21556 -3.38006,4.0717 -3.38006,4.19621 0,0.26724 0.45122,1.30819 0.85525,1.97302 0.4478,0.73686 0.49226,0.97504 0.19009,1.0183 -0.12459,0.0178 -0.24841,-0.0622 -0.39344,-0.25425 z m 20.1545704,-3.62984 c -0.59244,-0.11891 -1.30659,-0.42644 -1.71913,-0.7403 -0.47215,-0.35921 -0.40583,-0.28496 -1.19885,-1.34223 -0.34633,-0.46174 -0.74678,-0.9501 -0.88989,-1.08524 -0.38571,-0.36425 -1.33044,-0.78587 -2.02314,-0.90291 -0.71772,-0.12127 -2.03912,-0.0651 -3.14632,0.13378 -0.86667,0.15567 -1.11737,0.12082 -1.2517,-0.17401 -0.14711,-0.32286 0.0218,-0.60539 0.42729,-0.71456 0.64399,-0.17341 2.09821,-0.33941 2.98688,-0.34094 1.43441,-0.002 2.76943,0.427 3.62362,1.16575 0.20086,0.17371 0.67689,0.73443 1.05783,1.24604 1.08601,1.45848 1.56793,1.72644 3.23518,1.79884 0.51274,0.0222 3.53643,-0.0597 6.71931,-0.18224 3.18287,-0.1225 5.82394,-0.19992 5.86903,-0.17205 0.0451,0.0279 0.082,0.25451 0.082,0.50365 v 0.45297 l -0.8687,0.0517 c -0.47779,0.0285 -2.01285,0.0906 -3.41125,0.13804 -1.3984,0.0475 -3.43879,0.12297 -4.5342,0.16779 -2.31682,0.0948 -4.47406,0.093 -4.95796,-0.004 z m -15.93327,-0.84175 c -0.4341404,-0.17957 -0.7191604,-0.74731 -0.6523504,-1.29946 0.0391,-0.32291 0.5241504,-0.78826 0.8940104,-0.85764 0.64202,-0.12044 1.3265,0.43664 1.32593,1.07913 -7.7e-4,0.82506 -0.81887,1.38766 -1.56759,1.07797 z m 0.84146,-0.64558 c 0.21455,-0.21455 0.17123,-0.6855 -0.0781,-0.84885 -0.56645,-0.37115 -1.14785,0.37357 -0.66702,0.8544 0.1665,0.1665 0.5761,0.16345 0.7451,-0.006 z m 2.50622,12.86278 v -0.57638 l -0.37805,-0.18367 c -0.20794,-0.10102 -0.39925,-0.14939 -0.42516,-0.10748 -0.0697,0.11276 -0.0754,0.9013 -0.007,1.01146 0.0589,0.0952 0.6276,0.42166 0.74695,0.42869 0.035,0.002 0.0636,-0.25562 0.0636,-0.57262 z m 22.40749,-0.65047 c 0.13038,-0.17476 -1.05196,-1.99371 -1.29594,-1.99371 -0.0347,0 -0.27684,0.24195 -0.53809,0.53768 l -0.47499,0.53769 0.55085,0.8819 c 0.30297,0.48504 0.6307,0.96738 0.72829,1.07186 l 0.17744,0.18997 0.38848,-0.56212 c 0.21366,-0.30916 0.42244,-0.60764 0.46396,-0.66327 z m -23.72704,-0.0545 0.0577,-0.47617 -0.30618,-0.18066 c -0.1684,-0.0994 -0.32779,-0.18065 -0.3542,-0.18065 -0.0264,0 -0.0301,0.21631 -0.008,0.48069 0.0334,0.40244 0.0794,0.5122 0.28262,0.67426 0.13352,0.10647 0.24901,0.18573 0.25665,0.17614 0.008,-0.01 0.0399,-0.23172 0.0716,-0.49361 z m 25.28045,-1.50855 c 0.0102,-0.0271 -0.3922,-0.48493 -0.89432,-1.01736 l -0.91295,-0.96805 -0.39174,0.5604 c -0.34228,0.48963 -0.37544,0.57394 -0.26262,0.66757 0.19637,0.16298 0.8183,0.99707 1.082,1.45111 l 0.23463,0.40398 0.56319,-0.52417 c 0.30975,-0.28829 0.57157,-0.54635 0.58181,-0.57348 z m -26.64689,0.12638 c -0.22668,-0.1962 -0.23923,-0.19806 -0.26541,-0.0395 -0.0151,0.0916 0.0802,0.34625 0.21188,0.566 l 0.23936,0.39956 0.026,-0.36007 c 0.0222,-0.30626 -0.009,-0.39085 -0.21188,-0.566 z m 27.1352,-0.83778 c 0.13247,-0.34685 0.13067,-0.38569 -0.0387,-0.83838 -0.22006,-0.58817 -0.63437,-1.14047 -1.09495,-1.45966 -0.19305,-0.13378 -0.36481,-0.22803 -0.3817,-0.20945 -0.0169,0.0186 -0.15283,0.2338 -0.30209,0.47827 l -0.27138,0.4445 0.91807,1.00225 c 0.50494,0.55123 0.94367,0.98963 0.97496,0.97421 0.0313,-0.0154 0.11939,-0.1917 0.19579,-0.39174 z m 0.42197,-1.71802 c 0.032,-0.21365 0.11264,-0.54262 0.17912,-0.73104 0.0665,-0.18843 0.12088,-0.38941 0.12088,-0.44663 0,-0.0798 -0.99223,-0.82252 -1.28011,-0.95818 -0.0592,-0.0279 -0.71519,0.90181 -0.66209,0.93835 0.0194,0.0134 0.19938,0.13434 0.39993,0.26885 0.38705,0.25957 0.78602,0.71364 0.95724,1.08945 0.14749,0.32371 0.21837,0.28372 0.28503,-0.1608 z m 0.89326,-2.33104 c 0,-0.11007 -0.58585,-0.46763 -0.95913,-0.5854 -0.28652,-0.0904 -0.33753,-0.0841 -0.44637,0.0547 -0.30988,0.39529 -0.3083,0.39898 0.36741,0.85878 l 0.64498,0.43888 0.19655,-0.34604 c 0.10811,-0.19032 0.19656,-0.37974 0.19656,-0.42093 z m 0.84579,-1.1757 c 0.0942,-0.1846 0.17122,-0.3567 0.17122,-0.38245 0,-0.0911 -0.95195,-0.46636 -1.04732,-0.41282 -0.0532,0.0299 -0.18273,0.1317 -0.28774,0.22623 l -0.19092,0.17189 0.44517,0.24299 c 0.24485,0.13365 0.50102,0.29852 0.56928,0.36639 0.0683,0.0679 0.13422,0.1234 0.14659,0.1234 0.0124,0 0.0995,-0.15103 0.19372,-0.33563 z m 0.38674,-1.14222 c 0.031,-0.20685 0.0426,-0.41753 0.0257,-0.46818 -0.0177,-0.0529 -0.22582,0.0309 -0.48936,0.19709 l -0.45866,0.2892 0.37459,0.17184 c 0.20602,0.0945 0.40086,0.17506 0.43296,0.17899 0.0321,0.004 0.0838,-0.16209 0.11477,-0.36894 z m 8.89526,-0.38668 c 0.13984,-0.0926 0.21612,-0.16886 0.1695,-0.16945 -0.51188,-0.006 -2.87775,-0.50228 -3.45362,-0.72388 -0.0984,-0.0379 -0.14831,-0.0166 -0.14831,0.0633 0,0.0792 0.27409,0.19956 0.80139,0.35187 0.44077,0.12731 1.06051,0.32368 1.37721,0.43639 0.70536,0.25101 0.92672,0.25838 1.25383,0.0418 z m 0.93834,-1.02664 c 0.22206,-0.35177 0.54481,-1.04784 0.54481,-1.175 0,-0.0378 -0.14302,-0.0348 -0.31782,0.007 -0.66634,0.15819 -2.47744,0.33045 -3.47429,0.33045 h -1.03872 v 0.23613 c 0,0.22726 0.0326,0.24519 0.8687,0.47772 1.13713,0.31625 1.92423,0.45562 2.62623,0.46502 l 0.57101,0.008 0.22008,-0.34862 z m -1.99893,-1.34775 c 1.07097,-0.0833 2.42523,-0.29678 2.61119,-0.41172 0.0559,-0.0345 0.12665,-0.36087 0.15754,-0.72624 0.0467,-0.55223 0.0361,-0.65537 -0.0633,-0.61483 -1.05894,0.43213 -4.23887,1.24563 -4.86913,1.24563 -0.18142,0 -0.20818,0.0381 -0.20818,0.29663 v 0.29663 l 0.65682,-0.002 c 0.36125,-10e-4 1.13301,-0.0389 1.71502,-0.0842 z m -1.05309,-1.17714 c 1.59281,-0.32819 3.61267,-0.92972 3.72338,-1.10886 0.0201,-0.0326 0.0131,-0.20391 -0.0156,-0.38075 l -0.0522,-0.32155 -0.68622,0.0507 c -1.25279,0.0926 -4.45765,1.34325 -4.45765,1.73949 0,0.33052 -0.0133,0.33033 1.48825,0.0209 z m 0.50013,-1.58792 c 0.87167,-0.33601 1.82262,-0.58699 2.52116,-0.66541 l 0.48385,-0.0543 -0.1721,-0.43928 c -0.0947,-0.24161 -0.20729,-0.47531 -0.25032,-0.51934 -0.20628,-0.21109 -2.02758,0.46054 -3.23056,1.19131 -0.75475,0.45848 -1.51309,1.11252 -1.45761,1.25711 0.0372,0.0969 0.1765,0.0613 0.69629,-0.17809 0.35739,-0.16457 0.99157,-0.43096 1.40929,-0.59198 z m -1.48837,-0.4875 c 0.29831,-0.21745 0.85132,-0.56357 1.22889,-0.76915 0.69806,-0.38007 2.08753,-0.89252 2.42002,-0.89252 0.18107,0 0.18138,-0.003 0.0299,-0.26371 -0.0842,-0.14504 -0.19196,-0.27921 -0.23945,-0.29817 -0.17796,-0.071 -1.41115,0.31038 -2.07592,0.64209 -0.75861,0.37855 -1.27672,0.71172 -1.87642,1.20665 -0.30702,0.25338 -0.38513,0.36747 -0.35265,0.51513 0.0847,0.38502 0.10961,0.42362 0.21833,0.33784 0.0577,-0.0455 0.34901,-0.26071 0.64732,-0.47816 z M 8.1255576,21.486173 c 0.19705,-0.2529 0.2021,-0.28422 0.0829,-0.51468 -0.26988,-0.52188 -0.35299,-0.49599 -0.54394,0.16941 -0.097,0.338 -0.19948,0.74803 -0.22774,0.91118 l -0.0514,0.29663 0.26517,-0.29663 c 0.14584,-0.16315 0.35959,-0.41781 0.47499,-0.56591 z m 38.1962704,0.2819 c 0.8082,-0.57985 1.77441,-1.07071 2.53519,-1.28793 0.31464,-0.0898 0.57207,-0.1887 0.57207,-0.21968 0,-0.031 -0.1201,-0.0982 -0.2669,-0.14937 -0.83793,-0.29211 -1.93087,0.1206 -3.20609,1.21064 -0.54534,0.46615 -0.60339,0.55311 -0.5375,0.8051 0.0614,0.23499 0.0933,0.22235 0.90323,-0.35876 z m -5.87713,0.17807 c -5.2e-4,-0.10488 -0.0247,-0.38979 -0.0539,-0.63314 l -0.0531,-0.44245 -0.42141,0.37889 c -0.23178,0.20838 -0.45543,0.37888 -0.497,0.37888 -0.33776,0 0.55466,0.48886 0.92025,0.50409 0.0583,0.002 0.1056,-0.0814 0.1052,-0.18627 z m -1.30315,-0.67064 c 0.13448,-0.10083 0.42566,-0.35683 0.64707,-0.56889 0.43948,-0.42092 0.46892,-0.54032 0.31276,-1.26849 l -0.0898,-0.41877 -0.60939,0.60894 c -0.33517,0.33491 -0.79055,0.6965 -1.01196,0.80354 -0.22141,0.10702 -0.40257,0.22536 -0.40257,0.26297 0,0.0729 0.76952,0.75608 0.85727,0.76106 0.0287,0.002 0.16216,-0.0795 0.29663,-0.18036 z m -29.6330804,-1.4602 c 0.003,-0.0975 -0.75222,-0.98378 -0.83882,-0.98378 -0.0361,0 -0.18831,0.26613 -0.33824,0.59139 l -0.27258,0.59138 0.3236,0.388 0.3236,0.38799 0.39988,-0.44968 c 0.21993,-0.24733 0.40108,-0.48371 0.40256,-0.5253 z m 28.8710204,0.20636 c 0.41417,-0.23754 1.47231,-1.30471 1.47303,-1.48559 5.3e-4,-0.14991 -0.45183,-1.4844 -0.5026,-1.4825 -0.0267,0.001 -0.20069,0.21406 -0.38656,0.47344 -0.18586,0.25939 -0.67212,0.79378 -1.08058,1.18753 -0.40845,0.39375 -0.74264,0.73637 -0.74264,0.76137 0,0.14572 0.5404,0.79626 0.66089,0.79559 0.0793,-5.3e-4 0.33964,-0.11286 0.57846,-0.24984 z m -28.19031,-1.07784 c 0,-0.15543 -0.5361104,-1.06113 -0.7169604,-1.21122 -0.10338,-0.0858 -0.16714,-0.0358 -0.37774,0.2963 l -0.25338,0.39953 0.48335,0.54296 0.48335,0.54297 0.19069,-0.21902 c 0.1048804,-0.12046 0.1906904,-0.27864 0.1906904,-0.35152 z m 27.34777,-0.51486 c 0.67038,-0.6483 1.55247,-1.78614 1.55247,-2.00258 0,-0.15003 -0.33094,-0.85397 -0.37725,-0.80243 -0.0145,0.0162 -0.22413,0.27713 -0.46578,0.57992 -0.5155,0.6459 -1.06864,1.12202 -1.63979,1.41144 -0.2255,0.11427 -0.39793,0.23444 -0.38318,0.26705 0.12169,0.26894 0.63078,1.11687 0.67103,1.11766 0.028,5.3e-4 0.31715,-0.25642 0.6425,-0.57106 z m -26.32098,-1.11776 c -0.20281,-0.53376 -0.58383,-1.19172 -0.69011,-1.19172 -0.0903,0 -0.8450504,0.93519 -0.8451304,1.0472 -3e-5,0.0399 0.10876,0.21152 0.24175,0.38138 0.1330004,0.16985 0.3332204,0.47175 0.4449504,0.67089 l 0.20314,0.36206 0.40403,-0.42086 0.40403,-0.42086 z m 25.48271,-0.16991 c 0.2844,-0.18381 0.67684,-0.49845 0.87208,-0.6992 0.343,-0.35265 0.9254,-1.15035 0.9254,-1.26749 0,-0.0616 -0.67872,-1.25866 -0.71363,-1.25866 -0.0115,0 -0.16709,0.21217 -0.34569,0.47149 -0.17859,0.25932 -0.73789,0.86461 -1.24287,1.3451 l -0.91814,0.8736 0.3461,0.43469 c 0.19036,0.23907 0.39416,0.43468 0.45288,0.43468 0.0587,0 0.33947,-0.15039 0.62387,-0.33421 z m -24.84733,-0.48466 c -0.0755,-0.22724 -0.27368,-0.61578 -0.44046,-0.86343 -0.29251,-0.43435 -0.30898,-0.44507 -0.46584,-0.30312 -0.0894,0.0809 -0.16261,0.18412 -0.16261,0.22928 0,0.0452 0.15256,0.31057 0.33901,0.58978 0.18645,0.27922 0.33901,0.53898 0.33901,0.57724 0,0.0383 0.0398,0.17423 0.0884,0.30214 l 0.0884,0.23256 0.17565,-0.17564 c 0.1698,-0.1698 0.17108,-0.18938 0.0384,-0.58881 z m 1.13748,-0.50439 0.49877,-0.47575 -0.20224,-0.3991 c -0.11123,-0.2195 -0.37371,-0.58702 -0.58328,-0.81671 l -0.38104,-0.41761 -0.43029,0.42057 c -0.23666,0.23132 -0.43029,0.44932 -0.43029,0.48446 0,0.0351 0.1518,0.29876 0.33733,0.58582 0.18554,0.28706 0.38389,0.65066 0.44079,0.808 0.0569,0.15734 0.13675,0.28607 0.17746,0.28607 0.0407,0 0.29846,-0.21409 0.57279,-0.47575 z m 22.62245,-0.50129 c 0.65728,-0.55467 1.35516,-1.34431 1.68853,-1.91055 l 0.1782,-0.30267 -0.3871,-0.52091 -0.3871,-0.52092 -0.34357,0.68644 c -0.35382,0.7069 -1.21017,1.71045 -1.80558,2.11592 -0.1622,0.11046 -0.29517,0.22257 -0.29549,0.24914 -8e-4,0.0654 0.59415,0.75683 0.65118,0.75683 0.0249,0 0.34033,-0.24898 0.70093,-0.55328 z m -21.18459,-0.95818 c -8e-5,-0.2696 -0.41007,-1.1422 -0.70129,-1.49259 l -0.20747,-0.24963 -0.47649,0.40708 -0.4765,0.40708 0.41548,0.46615 c 0.22851,0.25638 0.50273,0.63063 0.60937,0.83166 l 0.19391,0.36551 0.32153,-0.25466 c 0.22818,-0.18072 0.32151,-0.32025 0.32146,-0.4806 z m 19.9726,0.16947 c 0.66686,-0.52834 1.3542,-1.3288 1.62963,-1.89782 0.43224,-0.89295 0.4325,-0.89066 -0.17535,-1.57078 -0.29457,-0.3296 -0.55967,-0.60247 -0.58909,-0.60638 -0.0294,-0.004 -0.0991,0.17404 -0.15477,0.39545 -0.21858,0.869 -0.9059,1.85871 -1.8309,2.63643 l -0.46635,0.39209 0.53237,0.48431 c 0.29281,0.26636 0.55756,0.48596 0.58833,0.48799 0.0308,0.002 0.24053,-0.14256 0.46613,-0.32129 z m -18.99206,-0.67085 c 0.43895,-0.30209 0.45948,-0.3325 0.41484,-0.61445 -0.0844,-0.53331 -0.77333,-1.69503 -1.00513,-1.69503 -0.054,0 -0.28675,0.16592 -0.5172,0.3687 -0.41604,0.3661 -0.41795,0.37015 -0.27072,0.57208 0.45051,0.61785 0.67166,1.00431 0.75898,1.32632 0.0537,0.19811 0.11111,0.36019 0.12754,0.36019 0.0164,0 0.23769,-0.14301 0.49169,-0.31781 z m 17.40186,-0.58617 c 0.99071,-0.78912 1.72181,-1.87503 1.94558,-2.88979 l 0.0797,-0.36135 -0.56215,-0.5073597 c -0.30918,-0.27904 -0.58457,-0.50735 -0.61198,-0.50735 -0.0274,0 -0.11306,0.29137 -0.19034,0.64749 -0.21292,0.9811697 -0.71188,1.9315597 -1.39942,2.6655297 l -0.58375,0.62318 0.43249,0.31293 c 0.23786,0.17212 0.44762,0.3162 0.46613,0.32019 0.0185,0.004 0.2092,-0.13257 0.42376,-0.30347 z m -16.09968,-0.29521 c 0.50914,-0.3165 0.53739,-0.47214 0.21237,-1.17038 -0.22633,-0.48623 -0.75423,-1.18999 -0.89262,-1.18999 -0.0447,0 -0.26706,0.1387 -0.49413,0.30822 l -0.41285,0.30822 0.37039,0.50314 c 0.20371,0.27673 0.4528,0.72917 0.55353,1.00543 0.10073,0.27626 0.19457,0.50229 0.20854,0.50229 0.014,0 0.21861,-0.12012 0.45477,-0.26693 z m 15.93587,-2.07042 c 0.30359,-0.61668 0.59629,-1.6001297 0.59629,-2.0034797 0,-0.21897 -0.0657,-0.27363 -0.69472,-0.5778 -0.38209,-0.18478 -0.7444,-0.33596 -0.80513,-0.33596 -0.0771,0 -0.11043,0.1383 -0.11043,0.45868 0,0.99488 -0.4041,2.4775897 -0.8948,3.2831597 -0.16044,0.2634 -0.29172,0.4996 -0.29172,0.52489 0,0.0253 0.16209,0.1446 0.3602,0.26514 l 0.36019,0.21915 0.59672,-0.62573 c 0.37616,-0.39444 0.70268,-0.84097 0.8834,-1.20805 z m -14.27899,1.17462 0.63704,-0.31522 v -0.34615 c 0,-0.46119 -0.3271,-1.09682 -0.80647,-1.56717 l -0.38747,-0.3801697 -0.52599,0.2815297 c -0.90737,0.48567 -0.8891,0.45613 -0.54373,0.87899 0.37502,0.45916 0.71734,1.10026 0.78767,1.47512 0.0298,0.15855 0.0874,0.28828 0.128,0.28828 0.0406,0 0.36058,-0.14184 0.71095,-0.31521 z m 11.71099,-0.17211 c 0.19513,-0.24668 0.54956,-0.96366 0.72175,-1.46005 0.1713,-0.49386 0.40717,-1.8700697 0.40801,-2.3806597 5.3e-4,-0.29117 -0.0162,-0.30761 -0.4519,-0.44494 -0.24881,-0.0784 -0.47764,-0.14261 -0.5085,-0.14261 -0.0309,0 -0.0567,0.2765 -0.0574,0.61445 -0.002,1.02626 -0.33538,2.1016397 -0.94651,3.0539997 -0.14331,0.22333 -0.24613,0.41903 -0.22848,0.43488 0.0431,0.0387 0.87075,0.4643 0.91264,0.4693 0.0182,0.002 0.0858,-0.0628 0.15036,-0.14437 z m -10.0403,-0.5197 c 0.57014,-0.21729 0.31465,-1.50465 -0.4879,-2.4584297 l -0.21859,-0.25978 -0.59454,0.29941 -0.59455,0.29941 0.38073,0.4070297 c 0.46474,0.49684 0.7213,0.98217 0.79204,1.49829 0.05,0.36514 0.0673,0.38693 0.27386,0.34544 0.12124,-0.0243 0.32327,-0.0835 0.44895,-0.13137 z m 9.15266,-0.8995 c 0.51897,-1.0081797 0.76569,-2.1324497 0.62848,-2.8638697 -0.0547,-0.29177 -0.0677,-0.30014 -0.61329,-0.39515 -0.30655,-0.0534 -0.80775,-0.12044 -1.11377,-0.14902 -0.52426,-0.049 -0.55254,-0.0426 -0.48955,0.10995 0.36291,0.87901 0.43401,2.0738 0.17857,3.0010797 -0.26635,0.96691 -0.29266,0.87516 0.30647,1.06885 l 0.53607,0.17331 0.15272,-0.21851 c 0.084,-0.12019 0.27044,-0.44717 0.4143,-0.72664 z m -7.65623,0.46144 0.51322,-0.10097 0.0987,-0.4753 c 0.0554,-0.26689 0.0754,-0.69782 0.0456,-0.9827797 -0.0608,-0.58219 -0.50206,-1.61112 -0.66607,-1.55332 -1.03857,0.36602 -1.67402,0.62668 -1.67402,0.68669 0,0.0412 0.0975,0.19068 0.21658,0.33224 0.40391,0.48002 0.65349,1.0881797 0.69757,1.6997497 0.03,0.41682 0.0712,0.56528 0.14838,0.53565 0.0588,-0.0225 0.33777,-0.0864 0.62004,-0.14196 z m 5.72374,-0.5471 c 0.12339,-0.37602 0.16769,-0.7501697 0.17054,-1.4402497 0.003,-0.80587 -0.0247,-1.00121 -0.20702,-1.44077 l -0.21088,-0.50851 h -0.60621 c -0.33342,0 -0.62719,0.021 -0.65283,0.0467 -0.0256,0.0257 0.0534,0.3308 0.17561,0.67801 0.18215,0.51742 0.2237,0.79181 0.23035,1.52118 0.005,0.4894397 -0.0214,1.0286097 -0.0575,1.1981697 l -0.0656,0.30827 0.40462,0.0852 c 0.60303,0.12691 0.63625,0.10874 0.81893,-0.44798 z m -3.86708,0.18967 c 0.19531,-0.15397 0.38292,-0.9938997 0.33645,-1.5063097 -0.0414,-0.45689 -0.26613,-1.09061 -0.52955,-1.49351 -0.11703,-0.17899 -0.13166,-0.18032 -0.61006,-0.0554 -0.26958,0.0704 -0.51363,0.14245 -0.54232,0.16016 -0.0287,0.0177 0.0392,0.22317 0.15093,0.45657 0.34829,0.72777 0.45935,1.9020897 0.23513,2.4863897 -0.0464,0.12082 0.004,0.13182 0.39979,0.0873 0.24906,-0.028 0.5009,-0.0889 0.55963,-0.13516 z m 2.39804,-0.37984 c 0.13975,-0.6714197 0.0507,-1.6358597 -0.22161,-2.3996297 -0.12357,-0.34663 -0.25285,-0.66051 -0.28728,-0.69753 -0.0547,-0.0588 -0.77684,0.0197 -1.45863,0.15862 l -0.22546,0.0459 0.26029,0.56701 c 0.32467,0.70726 0.41511,1.72644 0.20731,2.3362997 l -0.13099,0.38442 0.56566,0.0295 c 0.31111,0.0162 0.70597,0.037 0.87747,0.0461 l 0.31181,0.0166 z"
       style="fill:#000000;stroke-width:0.08475142" />
  </g>
</svg>
